<svg width="150" height="14" viewBox="0 0 150 14" fill="none" xmlns="http://www.w3.org/2000/svg">
<g id="DHAKA pass">
<path d="M7.88055 13.8659L6.56367 13.8564C5.91387 13.8436 4.95299 13.8372 3.68105 13.8372C3.03125 13.8372 2.39182 13.8404 1.76275 13.8468H0V12.3817C0.214296 12.3817 0.445873 12.3657 0.694732 12.3338C0.943592 12.3019 1.15789 12.2125 1.33762 12.0657C1.51735 11.9124 1.60722 11.6539 1.60722 11.29V2.68126C1.60722 2.09394 1.34108 1.7492 0.808793 1.64706C0.587585 1.60876 0.317987 1.5896 0 1.5896V0.124487L7.19618 0.134063L7.83907 0.124487C9.06263 0.124487 10.1618 0.188326 11.1365 0.316005C12.201 0.50114 13.0962 0.925673 13.8221 1.5896C14.5548 2.24715 15.1078 3.05791 15.4811 4.02189C15.8544 4.97948 16.0411 5.97538 16.0411 7.00958C16.0411 8.0757 15.8302 9.10351 15.4085 10.093C14.9938 11.0825 14.3543 11.9093 13.4903 12.5732C12.6262 13.2371 11.5305 13.6393 10.2032 13.7798C9.45666 13.8372 8.68243 13.8659 7.88055 13.8659ZM7.87018 12.3529C8.41629 12.3529 8.89327 12.2029 9.30112 11.9029C9.70897 11.6028 10.0442 11.2006 10.3069 10.6963C10.5696 10.192 10.7666 9.6238 10.898 8.99179C11.0293 8.35978 11.095 7.70862 11.095 7.0383C11.095 6.36161 11.0293 5.70087 10.898 5.05609C10.7666 4.40492 10.5731 3.82079 10.3173 3.30369C10.0684 2.78021 9.75736 2.36525 9.38407 2.05882C9.01078 1.74601 8.57874 1.5896 8.08793 1.5896C7.77686 1.5896 7.5038 1.62471 7.26877 1.69494C6.84018 1.83539 6.62588 2.16416 6.62588 2.68126V11.2804C6.62588 11.5294 6.67081 11.7273 6.76068 11.8741C6.92659 12.1423 7.19964 12.2987 7.57984 12.3434L7.87018 12.3529Z" fill="#D03246"/>
<path d="M33.9175 13.8851H25.6947V12.42C25.909 12.42 26.1406 12.404 26.3895 12.3721C26.9978 12.3019 27.3019 11.9539 27.3019 11.3283V7.65116C27.2605 7.65116 27.2225 7.64797 27.1879 7.64159C24.7131 7.64159 23.4412 7.64478 23.372 7.65116C23.3098 7.65116 23.2511 7.65755 23.1958 7.67031V11.3187C23.2165 11.9508 23.5241 12.3019 24.1186 12.3721C24.3675 12.404 24.5921 12.42 24.7926 12.42L24.803 13.8851H16.5699L16.5803 12.42C16.7946 12.42 17.0261 12.404 17.275 12.3721C17.5238 12.3402 17.7347 12.2508 17.9075 12.104C18.0872 11.9508 18.1771 11.6922 18.1771 11.3283V2.71956C18.1771 2.38121 18.1011 2.13543 17.949 1.98222C17.7969 1.829 17.6103 1.73324 17.389 1.69494C17.1678 1.65025 16.9501 1.62791 16.7358 1.62791H16.5803L16.5699 0.162791H24.803V1.62791C24.6025 1.62791 24.3744 1.64387 24.1186 1.67579C23.5241 1.74601 23.2165 2.09394 23.1958 2.71956V5.89877C23.2787 5.90515 24.6474 5.90834 27.3019 5.90834V2.71956C27.3019 2.13224 27.0358 1.7907 26.5035 1.69494C26.2823 1.65025 26.0646 1.62791 25.8503 1.62791H25.6947V0.162791H33.9175V1.62791C33.717 1.62791 33.4889 1.64387 33.2331 1.67579C32.9842 1.70132 32.7699 1.79389 32.5902 1.95349C32.4174 2.1067 32.3241 2.36206 32.3102 2.71956V11.3187C32.3241 11.6762 32.4174 11.9348 32.5902 12.0944C32.7699 12.2476 32.9842 12.3402 33.2331 12.3721C33.4889 12.404 33.717 12.42 33.9175 12.42V13.8851Z" fill="#D03246"/>
<path d="M42.6794 7.36388L41.7773 2.71956C41.7565 2.61104 41.7289 2.51208 41.6943 2.42271C41.6528 2.51208 41.6217 2.61104 41.601 2.71956L40.5433 7.36388H42.6794ZM50.2903 13.8851H42.078L42.0572 12.3817H42.192C42.3787 12.3817 42.5722 12.3689 42.7727 12.3434C42.9732 12.3178 43.1391 12.254 43.2704 12.1518C43.4087 12.0433 43.4778 11.8646 43.4778 11.6156C43.4778 11.5326 43.4674 11.4368 43.4467 11.3283L43.0112 9.04925H40.1597L39.6516 11.3283C39.6239 11.4496 39.6101 11.5581 39.6101 11.6539C39.6101 11.9093 39.6862 12.0912 39.8382 12.1997C39.9903 12.3019 40.1735 12.3657 40.3878 12.3912C40.609 12.4104 40.8164 12.42 41.01 12.42L41.0203 13.8851H34.9751L34.9647 12.42C35.1721 12.42 35.4037 12.404 35.6595 12.3721C35.9152 12.3402 36.1503 12.2476 36.3646 12.0944C36.5789 11.9348 36.731 11.6762 36.8208 11.3187L38.7598 2.71956C38.7875 2.60465 38.8013 2.50251 38.8013 2.41313C38.8013 2.15139 38.7218 1.96626 38.5628 1.85773C38.4108 1.7492 38.2241 1.68536 38.0029 1.66621C37.7886 1.64067 37.5916 1.62791 37.4119 1.62791C37.4188 1.57684 37.4257 1.33425 37.4326 0.900137C37.4464 0.459644 37.4568 0.213862 37.4637 0.162791H46.2567L46.7959 2.71956L48.4654 11.3187C48.6036 11.9508 48.9804 12.3019 49.5956 12.3721C49.8514 12.404 50.0795 12.42 50.28 12.42C50.2869 12.4583 50.2903 12.9466 50.2903 13.8851Z" fill="#D03246"/>
<path d="M68.2704 13.8851H60.1099L60.0684 12.3817H60.0995C60.2585 12.3817 60.421 12.3753 60.5869 12.3625C60.7597 12.3497 60.9014 12.3146 61.012 12.2572C61.1295 12.1933 61.1883 12.088 61.1883 11.9412C61.1883 11.788 61.0984 11.5709 60.9187 11.29L59.0419 8.5513L57.9428 9.76744V11.3187C57.9635 11.9508 58.2711 12.3019 58.8656 12.3721C59.1145 12.404 59.3391 12.42 59.5396 12.42L59.55 13.8851H51.3273V12.42C51.5415 12.42 51.7731 12.404 52.022 12.3721C52.2708 12.3402 52.4817 12.2508 52.6545 12.104C52.8342 11.9508 52.9241 11.6922 52.9241 11.3283V2.71956C52.9241 2.38121 52.8481 2.13543 52.696 1.98222C52.5439 1.829 52.3573 1.73324 52.136 1.69494C51.9148 1.65025 51.6971 1.62791 51.4828 1.62791H51.3273V0.162791H59.55V1.62791C59.3495 1.62791 59.1214 1.64387 58.8656 1.67579C58.6168 1.70132 58.4025 1.79389 58.2227 1.95349C58.0499 2.1067 57.9566 2.36206 57.9428 2.71956V6.60739L61.4475 2.70041C61.7171 2.3876 61.8519 2.15139 61.8519 1.99179C61.8519 1.86411 61.7932 1.77474 61.6757 1.72367C61.5581 1.66621 61.413 1.63429 61.2402 1.62791C61.0673 1.61514 60.9049 1.60876 60.7528 1.60876L60.7735 0.172367H66.881L66.8706 1.60876C66.6701 1.60876 66.4282 1.62471 66.1448 1.65663C65.8682 1.68855 65.571 1.78431 65.253 1.94391C64.935 2.09713 64.6101 2.35249 64.2783 2.70999L61.8727 5.39124L65.9374 11.3187C66.1862 11.6699 66.4489 11.9252 66.7254 12.0848C67.0089 12.238 67.2819 12.3306 67.5446 12.3625C67.8073 12.3944 68.0423 12.4104 68.2497 12.4104H68.2808L68.2704 13.8851Z" fill="#D03246"/>
<path d="M77.0427 7.36388L76.1406 2.71956C76.1199 2.61104 76.0922 2.51208 76.0577 2.42271C76.0162 2.51208 75.9851 2.61104 75.9643 2.71956L74.9067 7.36388H77.0427ZM84.6537 13.8851H76.4413L76.4206 12.3817H76.5554C76.742 12.3817 76.9356 12.3689 77.136 12.3434C77.3365 12.3178 77.5024 12.254 77.6338 12.1518C77.772 12.0433 77.8411 11.8646 77.8411 11.6156C77.8411 11.5326 77.8308 11.4368 77.81 11.3283L77.3745 9.04925H74.523L74.0149 11.3283C73.9873 11.4496 73.9735 11.5581 73.9735 11.6539C73.9735 11.9093 74.0495 12.0912 74.2016 12.1997C74.3537 12.3019 74.5368 12.3657 74.7511 12.3912C74.9724 12.4104 75.1797 12.42 75.3733 12.42L75.3837 13.8851H69.3384L69.3281 12.42C69.5355 12.42 69.767 12.404 70.0228 12.3721C70.2786 12.3402 70.5136 12.2476 70.7279 12.0944C70.9422 11.9348 71.0943 11.6762 71.1842 11.3187L73.1232 2.71956C73.1508 2.60465 73.1647 2.50251 73.1647 2.41313C73.1647 2.15139 73.0852 1.96626 72.9262 1.85773C72.7741 1.7492 72.5874 1.68536 72.3662 1.66621C72.1519 1.64067 71.9549 1.62791 71.7752 1.62791C71.7821 1.57684 71.789 1.33425 71.7959 0.900137C71.8098 0.459644 71.8201 0.213862 71.827 0.162791H80.6201L81.1593 2.71956L82.8287 11.3187C82.967 11.9508 83.3437 12.3019 83.9589 12.3721C84.2147 12.404 84.4428 12.42 84.6433 12.42C84.6502 12.4583 84.6537 12.9466 84.6537 13.8851Z" fill="#D03246"/>
<path d="M101.659 13.8851H93.1564V12.42C93.3776 12.42 93.6126 12.404 93.8615 12.3721C94.1103 12.3402 94.3212 12.2508 94.494 12.104C94.6737 11.9508 94.7636 11.6922 94.7636 11.3283V2.71956C94.7636 2.38121 94.6875 2.13543 94.5355 1.98222C94.3834 1.829 94.1933 1.73324 93.9652 1.69494C93.7439 1.65025 93.5262 1.62791 93.3119 1.62791H93.1564V0.162791H102.592C103.297 0.162791 103.902 0.360693 104.407 0.756498C104.918 1.1523 105.309 1.65983 105.579 2.27907C105.855 2.89831 105.993 3.53671 105.993 4.19425C105.993 4.80711 105.865 5.39124 105.61 5.94665C105.354 6.50205 104.953 6.95212 104.407 7.29685C103.868 7.64159 103.173 7.82353 102.323 7.84268C101.472 7.85545 100.626 7.86822 99.7822 7.88098V11.3187C99.7961 11.6762 99.9136 11.9348 100.135 12.0944C100.356 12.2476 100.612 12.3402 100.902 12.3721C101.199 12.404 101.448 12.42 101.649 12.42L101.659 13.8851ZM100.653 5.79343C100.812 5.79343 100.964 5.78705 101.109 5.77428C101.49 5.71683 101.811 5.50616 102.074 5.14227C102.343 4.77839 102.478 4.32513 102.478 3.78249C102.478 3.44414 102.413 3.11537 102.281 2.79617C102.115 2.44505 101.884 2.17373 101.586 1.98222C101.289 1.78431 100.999 1.68536 100.715 1.68536C100.46 1.68536 100.242 1.76835 100.062 1.93434C99.8825 2.10032 99.7892 2.36206 99.7822 2.71956V5.77428L100.124 5.78386L100.653 5.79343Z" fill="#D03246"/>
<path d="M112.401 7.36388L111.499 2.71956C111.479 2.61104 111.451 2.51208 111.416 2.42271C111.375 2.51208 111.344 2.61104 111.323 2.71956L110.265 7.36388H112.401ZM120.012 13.8851H111.8L111.779 12.3817H111.914C112.101 12.3817 112.294 12.3689 112.495 12.3434C112.695 12.3178 112.861 12.254 112.993 12.1518C113.131 12.0433 113.2 11.8646 113.2 11.6156C113.2 11.5326 113.19 11.4368 113.169 11.3283L112.733 9.04925H109.882L109.374 11.3283C109.346 11.4496 109.332 11.5581 109.332 11.6539C109.332 11.9093 109.408 12.0912 109.56 12.1997C109.712 12.3019 109.896 12.3657 110.11 12.3912C110.331 12.4104 110.539 12.42 110.732 12.42L110.742 13.8851H104.697L104.687 12.42C104.894 12.42 105.126 12.404 105.382 12.3721C105.637 12.3402 105.872 12.2476 106.087 12.0944C106.301 11.9348 106.453 11.6762 106.543 11.3187L108.482 2.71956C108.51 2.60465 108.523 2.50251 108.523 2.41313C108.523 2.15139 108.444 1.96626 108.285 1.85773C108.133 1.7492 107.946 1.68536 107.725 1.66621C107.511 1.64067 107.314 1.62791 107.134 1.62791C107.141 1.57684 107.148 1.33425 107.155 0.900137C107.169 0.459644 107.179 0.213862 107.186 0.162791H115.979L116.518 2.71956L118.187 11.3187C118.326 11.9508 118.702 12.3019 119.318 12.3721C119.573 12.404 119.802 12.42 120.002 12.42C120.009 12.4583 120.012 12.9466 120.012 13.8851Z" fill="#D03246"/>
<path d="M122.999 14H121.049V9.19289L124.71 9.12586V9.20246C124.71 10.0005 124.844 10.6325 125.114 11.0985C125.391 11.5645 125.74 11.8997 126.161 12.104C126.583 12.3019 127.019 12.4008 127.468 12.4008C127.876 12.4008 128.263 12.3338 128.629 12.1997C128.996 12.0657 129.293 11.8837 129.521 11.6539C129.756 11.4241 129.873 11.1623 129.873 10.8687C129.873 10.7729 129.856 10.6708 129.822 10.5622C129.656 10.1026 129.262 9.71318 128.64 9.39398C128.017 9.0684 127.292 8.75878 126.462 8.46512C125.833 8.23529 125.2 7.98313 124.564 7.70862C123.935 7.43411 123.355 7.11172 122.822 6.74145C122.297 6.3648 121.872 5.91473 121.547 5.39124C121.222 4.86776 121.06 4.23894 121.06 3.50479C121.067 2.44505 121.703 1.5896 122.968 0.938441C124.177 0.312813 125.715 0 127.582 0C128.736 0 129.649 0.0542636 130.319 0.162791C131.301 0.316005 131.975 0.539444 132.341 0.833105C132.39 0.858641 132.421 0.871409 132.435 0.871409C132.483 0.871409 132.538 0.833105 132.601 0.756498C132.663 0.679891 132.732 0.584131 132.808 0.46922C132.891 0.354309 132.974 0.248974 133.057 0.153215H135.006L134.996 4.79754L131.346 4.86457V4.74966C131.346 3.95805 131.204 3.31965 130.921 2.83447C130.637 2.34929 130.274 1.99498 129.832 1.77155C129.397 1.54172 128.944 1.42681 128.474 1.42681C128.052 1.42681 127.651 1.5098 127.271 1.67579C126.898 1.83539 126.593 2.06521 126.358 2.36525C126.123 2.6653 126.006 3.01642 126.006 3.4186C126.006 3.52713 126.016 3.63885 126.037 3.75376C126.141 4.19425 126.504 4.5741 127.126 4.8933C127.748 5.20611 128.498 5.51254 129.376 5.81259C130.219 6.11263 131.056 6.45417 131.885 6.83721C132.715 7.22025 133.409 7.69904 133.969 8.2736C134.536 8.84177 134.844 9.55358 134.892 10.409V10.4856C134.892 11.124 134.633 11.7114 134.114 12.2476C133.603 12.7775 132.867 13.202 131.906 13.5212C130.945 13.834 129.784 13.9904 128.422 13.9904C125.975 13.9713 124.406 13.6968 123.714 13.1669C123.659 13.135 123.624 13.119 123.611 13.119C123.541 13.119 123.462 13.1924 123.372 13.3393C123.282 13.4797 123.189 13.6425 123.092 13.8276L122.999 14Z" fill="#D03246"/>
<path d="M137.993 14H136.043V9.19289L139.703 9.12586V9.20246C139.703 10.0005 139.838 10.6325 140.108 11.0985C140.384 11.5645 140.733 11.8997 141.155 12.104C141.577 12.3019 142.012 12.4008 142.462 12.4008C142.869 12.4008 143.257 12.3338 143.623 12.1997C143.989 12.0657 144.287 11.8837 144.515 11.6539C144.75 11.4241 144.867 11.1623 144.867 10.8687C144.867 10.7729 144.85 10.6708 144.815 10.5622C144.65 10.1026 144.255 9.71318 143.633 9.39398C143.011 9.0684 142.285 8.75878 141.456 8.46512C140.827 8.23529 140.194 7.98313 139.558 7.70862C138.929 7.43411 138.349 7.11172 137.816 6.74145C137.291 6.3648 136.866 5.91473 136.541 5.39124C136.216 4.86776 136.053 4.23894 136.053 3.50479C136.06 2.44505 136.696 1.5896 137.961 0.938441C139.171 0.312813 140.709 0 142.576 0C143.73 0 144.643 0.0542636 145.313 0.162791C146.295 0.316005 146.969 0.539444 147.335 0.833105C147.384 0.858641 147.415 0.871409 147.428 0.871409C147.477 0.871409 147.532 0.833105 147.594 0.756498C147.657 0.679891 147.726 0.584131 147.802 0.46922C147.885 0.354309 147.968 0.248974 148.051 0.153215H150L149.99 4.79754L146.34 4.86457V4.74966C146.34 3.95805 146.198 3.31965 145.915 2.83447C145.631 2.34929 145.268 1.99498 144.826 1.77155C144.39 1.54172 143.938 1.42681 143.467 1.42681C143.046 1.42681 142.645 1.5098 142.265 1.67579C141.891 1.83539 141.587 2.06521 141.352 2.36525C141.117 2.6653 141 3.01642 141 3.4186C141 3.52713 141.01 3.63885 141.031 3.75376C141.134 4.19425 141.497 4.5741 142.119 4.8933C142.742 5.20611 143.492 5.51254 144.37 5.81259C145.213 6.11263 146.049 6.45417 146.879 6.83721C147.708 7.22025 148.403 7.69904 148.963 8.2736C149.53 8.84177 149.838 9.55358 149.886 10.409V10.4856C149.886 11.124 149.627 11.7114 149.108 12.2476C148.597 12.7775 147.861 13.202 146.9 13.5212C145.939 13.834 144.777 13.9904 143.416 13.9904C140.968 13.9713 139.399 13.6968 138.708 13.1669C138.653 13.135 138.618 13.119 138.604 13.119C138.535 13.119 138.456 13.1924 138.366 13.3393C138.276 13.4797 138.183 13.6425 138.086 13.8276L137.993 14Z" fill="#D03246"/>
</g>
</svg>
