<svg width="51" height="51" viewBox="0 0 51 51" fill="none" xmlns="http://www.w3.org/2000/svg">
<g id="customer-support">
<path id="Vector" d="M35.917 23.0733C35.917 22.3531 35.917 21.9931 36.0253 21.6723C36.3403 20.7399 37.1707 20.3781 38.0026 19.9991C38.9378 19.5732 39.4053 19.3602 39.8687 19.3227C40.3947 19.2802 40.9216 19.3935 41.3712 19.6458C41.9672 19.9803 42.3828 20.6159 42.8084 21.1328C44.7739 23.5198 45.7564 24.7136 46.116 26.0298C46.4062 27.0919 46.4062 28.2027 46.116 29.2648C45.5916 31.1846 43.9347 32.794 42.7082 34.2835C42.081 35.0454 41.7672 35.4265 41.3712 35.6488C40.9216 35.901 40.3947 36.0144 39.8687 35.9719C39.4053 35.9344 38.9378 35.7215 38.0026 35.2954C37.1707 34.9165 36.3403 34.5548 36.0253 33.6223C35.917 33.3015 35.917 32.9415 35.917 32.2213V23.0733Z" stroke="#D03246" stroke-width="2.5"/>
<path id="Vector_2" d="M15.0837 23.0736C15.0837 22.1669 15.0582 21.3519 14.3251 20.7144C14.0585 20.4825 13.705 20.3215 12.9981 19.9995C12.0628 19.5735 11.5952 19.3605 11.1319 19.3231C9.7418 19.2106 8.99391 20.1594 8.19226 21.1331C6.22689 23.5202 5.2442 24.7138 4.88462 26.03C4.59445 27.0923 4.59445 28.2031 4.88462 29.2652C5.40908 31.185 7.06599 32.7942 8.29243 34.284C9.06551 35.2229 9.80401 36.0796 11.1319 35.9723C11.5952 35.9348 12.0628 35.7217 12.9981 35.2958C13.705 34.9738 14.0585 34.8127 14.3251 34.5808C15.0582 33.9433 15.0837 33.1286 15.0837 32.2217V23.0736Z" stroke="#D03246" stroke-width="2.5"/>
<path id="Vector_3" d="M10.917 19.314C10.917 12.4104 17.4462 6.81396 25.5003 6.81396C33.5545 6.81396 40.0837 12.4104 40.0837 19.314" stroke="#D03246" stroke-width="2.5" stroke-linecap="square" stroke-linejoin="round"/>
<path id="Vector_4" d="M40.083 35.9807V37.6474C40.083 41.3293 36.352 44.314 31.7497 44.314H27.583" stroke="#D03246" stroke-width="2.5" stroke-linecap="round" stroke-linejoin="round"/>
</g>
</svg>
