<svg width="108" height="108" viewBox="0 0 108 108" fill="none" xmlns="http://www.w3.org/2000/svg">
<g id="mail-open">
<path id="Vector" d="M22.5016 31.5L17.0169 35.1564C13.0852 37.7775 11.1194 39.0881 10.054 41.0868C8.98862 43.0856 8.99654 45.4347 9.01229 50.1327C9.03133 55.7888 9.08389 61.5519 9.22946 67.3835C9.57479 81.2192 9.7475 88.137 14.8343 93.2238C19.9211 98.3111 26.9324 98.4861 40.9549 98.8366C49.6787 99.0544 58.325 99.0544 67.0482 98.8366C81.0711 98.4861 88.0821 98.3111 93.1689 93.2238C98.2557 88.137 98.4285 81.2192 98.7737 67.3835C98.9195 61.5519 98.9717 55.7888 98.991 50.1327C99.0068 45.4347 99.0144 43.0855 97.9493 41.0868C96.8837 39.0881 94.9181 37.7775 90.986 35.1564L85.5014 31.5" stroke="#D03246" stroke-width="5" stroke-linejoin="round"/>
<path id="Vector_2" d="M9 45L40.1086 63.6651C46.8765 67.7259 50.2605 69.7563 54 69.7563C57.7395 69.7563 61.1235 67.7259 67.8915 63.6651L99 45" stroke="#D03246" stroke-width="5" stroke-linejoin="round"/>
<path id="Vector_3" d="M22.5 54V27C22.5 18.5147 22.5 14.2721 25.1361 11.6361C27.7721 9 32.0147 9 40.5 9H67.5C75.9852 9 80.2278 9 82.8639 11.6361C85.5 14.2721 85.5 18.5147 85.5 27V54" stroke="#D03246" stroke-width="5"/>
<path id="Vector_4" d="M45 45H63M45 27H63" stroke="#D03246" stroke-width="5" stroke-linecap="round" stroke-linejoin="round"/>
</g>
</svg>
