<svg width="108" height="108" viewBox="0 0 108 108" fill="none" xmlns="http://www.w3.org/2000/svg">
<g id="ticket-02">
<path id="Vector" d="M88.6882 34.4267C89.3956 33.7195 90.6142 33.6474 91.3306 34.4292C95.5278 39.0071 97.8507 42.3968 98.6157 46.1506C99.0558 48.3106 99.1183 50.5089 98.8006 52.6473C97.942 58.4262 93.2598 63.1084 83.8953 72.4729L72.4729 83.8953C63.1084 93.2598 58.4262 97.942 52.6473 98.8006C50.5089 99.1183 48.3106 99.0558 46.1506 98.6157C42.3972 97.8507 39.0078 95.5282 34.4307 91.332C33.648 90.6147 33.7204 89.3947 34.4283 88.6869C38.3712 84.744 38.1838 78.1641 34.0099 73.9899C29.836 69.8161 23.2561 69.6289 19.3132 73.5718C18.6053 74.2797 17.3853 74.3521 16.6678 73.5691C12.4716 68.9922 10.1491 65.6028 9.38425 61.8493C8.94415 59.6893 8.88155 57.4911 9.1993 55.3527C10.0581 49.5738 14.7402 44.8915 24.1046 35.5271L35.5271 24.1046C44.8915 14.7402 49.5738 10.0581 55.3527 9.19926C57.4911 8.88156 59.6893 8.94415 61.8493 9.38425C65.6032 10.1492 68.9931 12.4721 73.5709 16.6692C74.3526 17.386 74.2806 18.6044 73.5732 19.3116C69.6303 23.2544 69.8179 29.8343 73.9917 34.0083C78.1654 38.1822 84.7458 38.3695 88.6882 34.4267Z" stroke="#D03246" stroke-width="5" stroke-linejoin="round"/>
<path id="Vector_2" d="M85.5 67.5L40.5 22.5" stroke="#D03246" stroke-width="5" stroke-linecap="round" stroke-linejoin="round"/>
</g>
</svg>
